<?xml version="1.0" encoding="UTF-8"?>
<svg id="Layer_1" xmlns="http://www.w3.org/2000/svg" version="1.1" viewBox="0 0 900 800">
  <!-- Generator: Adobe Illustrator 29.8.3, SVG Export Plug-In . SVG Version: 2.1.1 Build 3)  -->
  <defs>
    <style>
      .st0 {
        fill: #f0e7c8;
      }
    </style>
  </defs>
  <path class="st0" d="M800.69,364.99c1.2,1.63,1.24,3.64,1.38,5.57,2.44,34.23-1.96,71.29,0,105.82.03,2.19-.59,5.94-2.9,6.72-1.75.58-21.96.61-24.37.15-2.66-.51-4.29-3.88-6.6-4.06-.97-.08-7.85,3.73-10.19,4.4-14.64,4.21-24.1.2-37.66-.36-27.17-1.14-54.58,1.37-81.75-.48-1.92-1.72-1.96-4-2.17-6.37-2-22.4,3.35-52.26-.2-73.48-4.09-24.43-41.7-19.29-52.67-2.98-2.46,24.83,1.63,51.88-.43,76.46-.5,5.95-.99,6.44-6.94,6.94-25.65,2.15-54.22-1.73-80.19,0-3.26.31-5.87-4.2-8.49-4.27-1.37-.04-8.66,3.76-11.46,4.53-31.62,8.67-64.7-7.79-62.81-43.59,1.48-28,28.13-42.35,53.84-39.87,5.53.53,15.01,4.92,18.49,5,5.24.12,5.83-18.44-1.5-18.78l-64.39-.76c-3.73-1.81-2.1-15.54-1.42-19.54l1.84-1.49,100,.7c1.06.84.97,1.99,1.1,3.17,2.91,26.18-2.78,57.99-.06,84.43.63,6.1,1.93,7.52,7.96,8.06,6.44.58,20.78,2.07,22.3-5.58.53-27.05-1.93-55.71-.36-82.64.22-3.74-.13-7.24,4.22-8.53,3.24-.96,19.38-1.01,22.78-.25,4.41.99,6.05,6.87,7.69,7,19.03-10.68,51.9-13.23,69.41,1.34,21.38,17.8,8.58,58.43,12.38,82.67.76,4.87,3.52,5.59,7.89,5.99,4.55.41,18.53,1.24,20.38-3.29-12.84-44.92,33.14-68.83,70.65-52.47,5.14.51,5.87-18.72-1.5-18.81l-64.38-.76c-4.6-2.19-4.42-18-.45-20.74l100.57.17ZM449.97,429.18c-11.65,12.5-2.76,30.58,13.07,32.64,14.86,1.94,28.85-6.28,26.87-22.58-2.13-17.58-28.8-22.02-39.94-10.06ZM764.32,457.31c4.63-3.74,7.06-10.27,6.81-16.23-.96-22.73-39.24-25.53-44.82-3.06-5.2,20.93,23.45,31.06,38.01,19.29Z"/>
  <path class="st0" d="M97.17,317.21c.3-1.05,2.51-2.4,3.77-2.64,2.72-.52,22.21-.35,24,.5,2.51,1.19,3.03,4.96,3.25,7.43,1.53,16.88-1.99,37.12-.62,53.49.37,4.4,3.75,4.32,6.44,1.55l68.1-62.19c3.4-1.38,26.58-1.41,31.28-.86,1.81.21,3.76.28,3.73,2.72l-67.37,65.14c-.1,1.81,1.17,2.39,2.72,2.67,8.55,1.53,20.09-1.19,29.42.49,16.45,2.96,24.36,13.75,25.62,29.92,1.16,14.91,1.65,46.48-.01,60.94-.45,3.93-1.71,6.42-5.85,6.97-4.23.56-17.21.54-21.46,0-1.82-.23-3.24-.4-4.23-2.18-2.95-18.38,2.35-42.12-1-59.87-1.2-6.36-5.17-10.51-11.48-12.02-7.11-1.7-42.71-1.86-50.58-.78-3.12.43-4.63,1.63-5.33,4.81-.32,19.75,2.4,42.58.63,62.04-.22,2.47-.74,6.23-3.25,7.43-1.79.85-21.28,1.02-24,.5-1.17-.22-3.77-1.84-3.77-2.64v-163.4Z"/>
  <path class="st0" d="M351.88,387.16c-1.46.31-4.8,3.01-4.78,4.83-1.77,27.33,2.28,57.4.02,84.39-.18,2.16-.07,5.19-2.42,6.19-2.52,1.07-22.72,1.3-25.92.71-2.28-.42-2.94-1.87-3.5-3.98l.29-112.43c1.96-2.67,4.39-2.98,7.43-3.25,16.97-1.54,57.19-1.91,73.76.03,2.4.28,4.22.79,5.85,2.69v19.22l-1.6,1.6h-49.13Z"/>
  <path class="st0" d="M256.55,364.99c1.65-1.64,29.27-3.84,30.17,2.81l-1.05,113.35c-.54.92-1.32,1.61-2.36,1.92-2.32.68-21.54.7-24.32.18-1.75-.33-2.97-1.11-3.55-2.85l1.11-115.4Z"/>
</svg>