<?xml version="1.0" encoding="UTF-8" standalone="no"?>
<svg xmlns="http://www.w3.org/2000/svg" width="699" height="206" viewBox="0 0 699 206">
  <path d="M 138.00,180.50 L 113.00,180.50 L 111.50,179.00 L 110.50,122.00 L 106.00,114.50 L 99.00,110.50 L 50.00,110.50 L 47.50,114.00 L 47.50,178.00 L 45.00,180.50 L 21.00,180.50 L 17.50,177.00 L 17.50,26.00 L 21.00,21.50 L 45.00,21.50 L 47.50,24.00 L 47.50,80.00 L 50.00,82.50 L 118.00,21.50 L 149.00,21.50 L 150.50,23.00 L 150.50,26.00 L 137.00,39.50 L 87.50,85.00 L 89.00,87.50 L 117.00,87.50 L 128.00,91.50 L 137.50,100.00 L 141.50,113.00 L 141.50,176.00 L 138.00,180.50 Z M 627.00,183.50 L 611.00,182.50 L 607.00,180.50 L 527.00,180.50 L 524.50,178.00 L 523.50,103.00 L 520.50,97.00 L 516.00,92.50 L 508.00,89.50 L 497.00,89.50 L 488.00,92.50 L 478.00,98.50 L 475.50,102.00 L 475.50,176.00 L 472.00,180.50 L 390.00,180.50 L 386.00,176.50 L 384.00,176.50 L 371.00,182.50 L 355.00,183.50 L 338.00,179.50 L 331.00,175.50 L 318.50,161.00 L 314.50,148.00 L 314.50,137.00 L 318.50,124.00 L 331.00,109.50 L 347.00,102.50 L 368.00,101.50 L 385.00,105.50 L 386.50,103.00 L 386.50,94.00 L 382.00,89.50 L 321.00,89.50 L 318.50,86.00 L 318.50,71.00 L 323.00,67.50 L 415.00,68.50 L 417.50,71.00 L 417.50,155.00 L 420.00,157.50 L 442.00,157.50 L 444.50,155.00 L 445.50,69.00 L 449.00,67.50 L 470.00,67.50 L 473.00,68.50 L 476.00,73.50 L 479.00,73.50 L 486.00,69.50 L 503.00,65.50 L 518.00,65.50 L 531.00,68.50 L 539.00,72.50 L 548.50,82.00 L 553.50,93.00 L 555.50,156.00 L 557.00,157.50 L 578.00,157.50 L 580.50,156.00 L 578.50,151.00 L 578.50,133.00 L 582.50,122.00 L 592.00,111.50 L 599.00,106.50 L 610.00,102.50 L 631.00,101.50 L 638.00,102.50 L 647.00,106.50 L 650.50,102.00 L 650.50,95.00 L 646.00,89.50 L 585.00,89.50 L 581.50,85.00 L 581.50,73.00 L 584.00,68.50 L 679.00,68.50 L 680.50,72.00 L 680.50,177.00 L 678.00,180.50 L 654.00,180.50 L 648.00,176.50 L 641.00,180.50 L 627.00,183.50 Z M 194.00,180.50 L 170.00,180.50 L 166.50,177.00 L 166.50,71.00 L 168.00,68.50 L 171.00,67.50 L 193.00,67.50 L 197.50,72.00 L 197.50,177.00 L 194.00,180.50 Z M 250.00,180.50 L 226.00,180.50 L 222.50,177.00 L 222.50,72.00 L 227.00,67.50 L 302.00,67.50 L 306.50,71.00 L 306.50,87.00 L 304.00,90.50 L 256.00,91.50 L 253.50,94.00 L 253.50,177.00 L 250.00,180.50 Z M 372.50,159.00 L 379.00,156.50 L 386.50,148.00 L 386.50,136.00 L 381.00,128.50 L 374.00,124.50 L 364.00,123.50 L 356.00,125.50 L 348.50,132.00 L 345.50,137.00 L 345.50,146.00 L 349.50,153.00 L 356.00,157.50 L 361.00,159.50 L 372.50,159.00 Z M 635.50,159.00 L 644.00,155.50 L 647.50,152.00 L 650.50,146.00 L 650.50,137.00 L 646.50,130.00 L 640.00,125.50 L 632.00,123.50 L 620.00,125.50 L 609.50,136.00 L 609.50,147.00 L 617.00,156.50 L 624.00,159.50 L 635.50,159.00 Z" fill="#000000" fill-rule="evenodd"/>
</svg>
